CATALOG 0000000000000
FILE "Tokimeki Memorial - Forever with You (Japan) - [Boot directly into TwinBee Time Attack v2024.03.09-01 by bbayles] (Track 1).bin" BINARY
  TRACK 01 MODE1/2352
    INDEX 01 00:00:00
FILE "Tokimeki Memorial - Forever with You (Japan) - [Boot directly into TwinBee Time Attack v2024.03.09-01 by bbayles] (Track 2).bin" BINARY
  TRACK 02 MODE2/2352
    INDEX 00 00:00:00
    INDEX 01 00:03:00
FILE "Tokimeki Memorial - Forever with You (Japan) - [Boot directly into TwinBee Time Attack v2024.03.09-01 by bbayles] (Track 3).bin" BINARY
  TRACK 03 AUDIO
    INDEX 00 00:00:00
    INDEX 01 00:02:00
